<svg xmlns="http://www.w3.org/2000/svg" version="1.1" xmlns:xlink="http://www.w3.org/1999/xlink" width="512" height="512" x="0" y="0" viewBox="0 0 111 111" style="enable-background:new 0 0 512 512" xml:space="preserve" class=""><g><path d="M55.498.007c-16.747 0-32.46 6.872-41.605 17.674C4.436 28.33 0 42.018 0 55.501c0 13.49 4.442 27.186 13.91 37.837.01.01.011.013.017.02 11.58 12.683 27.187 17.637 41.571 17.637 17.594-.015 32.752-7.6 41.588-17.657l.01-.01C106.56 82.678 111 68.986 111 55.498c0-13.491-4.441-27.188-13.91-37.839-.01-.013-.023-.025-.035-.038C85.057 4.827 69.923.005 55.501.005zm0 27.15c10.63 0 16.752 3.43 21.3 8.545 4.486 5.047 7.051 12.347 7.051 19.8s-2.565 14.754-7.052 19.8c-4.547 5.115-10.669 8.547-21.3 8.547-10.63 0-16.75-3.432-21.298-8.546-4.486-5.047-7.052-12.347-7.052-19.8 0-7.455 2.565-14.754 7.052-19.801 4.547-5.115 10.668-8.544 21.299-8.544z" fill="#dc4c22" opacity="1" data-original="#000000" class=""></path></g></svg>