<svg xmlns="http://www.w3.org/2000/svg" version="1.1" xmlns:xlink="http://www.w3.org/1999/xlink" width="512" height="512" x="0" y="0" viewBox="0 0 512 512" style="enable-background:new 0 0 512 512" xml:space="preserve" class=""><g><circle cx="256" cy="256" r="248.5" style="" fill="#62dbfb" data-original="#62dbfb" class=""></circle><path d="M389.199 46.187c24.492 38.499 38.687 84.189 38.687 133.199 0 137.243-111.257 248.5-248.5 248.5-49.009 0-94.7-14.195-133.199-38.687C90.281 458.51 167.766 504.5 256 504.5c137.243 0 248.5-111.257 248.5-248.5 0-88.234-45.99-165.719-115.301-209.813z" style="" fill="#01d0fb" data-original="#01d0fb" class=""></path><path d="m335.995 156.555-12.819 21.736a73.745 73.745 0 0 0-5.169 64.291l2.111 5.404a61.939 61.939 0 0 0 40.304 36.911 28.146 28.146 0 0 1 12.667 7.8l13.697 14.657a28.157 28.157 0 0 0 15.452 8.463c13.048 2.413 22.64 13.608 23.025 26.871l.06 2.083a28.156 28.156 0 0 1-7.295 19.74l-26.694 29.414a28.17 28.17 0 0 0-4.758 7.217l-13.679 29.927a28.157 28.157 0 0 0-.441 22.393l7.393 18.02C454.347 428.574 504.5 348.145 504.5 256c0-54.982-17.869-105.783-48.099-146.942l-69.739 12.343a73.746 73.746 0 0 0-50.667 35.154z" style="" fill="#a2e62e" data-original="#a2e62e" class=""></path><path d="m456.401 109.058-36.801 6.514c5.396 20.365 8.286 41.751 8.286 63.814 0 48.177-13.725 93.142-37.456 131.227a28.144 28.144 0 0 0 11.81 5.205c13.048 2.413 22.64 13.608 23.025 26.871l.06 2.083a28.157 28.157 0 0 1-7.295 19.74l-26.694 29.414a28.17 28.17 0 0 0-4.758 7.217l-13.68 29.927a28.157 28.157 0 0 0-.441 22.393l7.393 18.02C454.347 428.574 504.5 348.145 504.5 256c0-54.982-17.869-105.783-48.099-146.942z" style="" fill="#97d729" data-original="#97d729"></path><path d="M7.5 256c0 22.113 2.904 43.546 8.324 63.953l41.779-21.264a40.371 40.371 0 0 0 22.055-35.41l.083-5.908c.287-20.342 15.664-37.292 35.882-39.552l13.929-1.557a40.371 40.371 0 0 0 33.883-27.562l13.826-42.237c5.431-16.591 20.91-27.811 38.368-27.811 22.296 0 40.371-18.075 40.371-40.371V7.5C118.757 7.5 7.5 118.757 7.5 256zM243.053 323.554l21.608 13.39a20.26 20.26 0 0 1 9.589 17.223v34.938c0 4.837 1.73 9.514 4.878 13.187l9.151 10.676c8.565 9.993 5.48 25.372-6.277 31.287L260.447 455.1a20.268 20.268 0 0 1-9.107 2.162h-23.31a35.856 35.856 0 0 1-31.165-18.126l-14.943-26.267a35.848 35.848 0 0 1-4.522-21.194l8.175-84.198a20.26 20.26 0 0 1 15.146-17.672l7.478-1.913c12.577-3.217 24.893 6.058 25.275 19.034a20.258 20.258 0 0 0 9.579 16.628z" style="" fill="#a2e62e" data-original="#a2e62e" class=""></path><path d="M504.5 183.033v-28.285c0-14.505-11.759-26.264-26.264-26.264h-58.589c-14.505 0-26.264 11.759-26.264 26.264v28.285c0 8.926 7.236 16.163 16.163 16.163h78.793c8.925-.001 16.161-7.237 16.161-16.163z" style="" fill="#fea95c" data-original="#fea95c"></path><path d="M478.236 128.484h-58.589c-10.402 0-19.391 6.048-23.644 14.819 11.704 16.676 31.063 27.608 52.939 27.608s41.235-10.932 52.939-27.608c-4.255-8.771-13.243-14.819-23.645-14.819z" style="" fill="#fe9738" data-original="#fe9738"></path><circle cx="448.941" cy="106.26" r="32.325" style="" fill="#fed2a4" data-original="#fed2a4"></circle><path d="M458.468 75.364a32.18 32.18 0 0 1 7.035 20.121c0 17.853-14.472 32.325-32.325 32.325-3.316 0-6.515-.501-9.527-1.429 5.922 7.434 15.047 12.204 25.29 12.204 17.853 0 32.325-14.472 32.325-32.325 0-14.536-9.596-26.829-22.798-30.896z" style="" fill="#ffbd86" data-original="#ffbd86"></path><path d="M224.281 390.88v-28.285c0-14.505-11.759-26.264-26.264-26.264h-58.589c-14.505 0-26.264 11.759-26.264 26.264v28.285c0 8.926 7.236 16.163 16.163 16.163h78.793c8.925 0 16.161-7.236 16.161-16.163z" style="" fill="#fe93d3" data-original="#fe93d3"></path><path d="M198.017 336.332h-58.589c-10.402 0-19.391 6.048-23.644 14.819 11.704 16.676 31.063 27.608 52.939 27.608s41.235-10.932 52.939-27.608c-4.255-8.771-13.243-14.819-23.645-14.819z" style="" fill="#fe73c5" data-original="#fe73c5"></path><circle cx="168.722" cy="314.108" r="32.325" style="" fill="#fed2a4" data-original="#fed2a4"></circle><path d="M178.249 283.212a32.18 32.18 0 0 1 7.035 20.121c0 17.853-14.472 32.325-32.325 32.325-3.316 0-6.515-.501-9.527-1.429 5.923 7.434 15.047 12.204 25.29 12.204 17.853 0 32.325-14.473 32.325-32.325 0-14.536-9.596-26.83-22.798-30.896z" style="" fill="#ffbd86" data-original="#ffbd86"></path><path d="M118.618 116.598V88.313c0-14.505-11.759-26.264-26.264-26.264h-58.59C19.259 62.049 7.5 73.808 7.5 88.313v28.285c0 8.926 7.236 16.163 16.163 16.163h78.793c8.926-.001 16.162-7.237 16.162-16.163z" style="" fill="#ffe177" data-original="#ffe177"></path><path d="M92.354 62.049h-58.59c-10.402 0-19.391 6.048-23.644 14.819 11.704 16.676 31.063 27.608 52.939 27.608s41.235-10.932 52.939-27.608c-4.254-8.771-13.242-14.819-23.644-14.819z" style="" fill="#ffd15b" data-original="#ffd15b"></path><circle cx="63.059" cy="39.825" r="32.325" style="" fill="#fed2a4" data-original="#fed2a4"></circle><path d="M72.586 8.929a32.18 32.18 0 0 1 7.035 20.121c0 17.853-14.472 32.325-32.325 32.325-3.316 0-6.515-.501-9.527-1.429 5.922 7.434 15.047 12.204 25.29 12.204 17.853 0 32.325-14.473 32.325-32.325 0-14.536-9.596-26.83-22.798-30.896z" style="" fill="#ffbd86" data-original="#ffbd86"></path><path d="m379.846 471.488-7.384-18.021a28.165 28.165 0 0 1 .434-22.395l13.678-29.931a28.21 28.21 0 0 1 4.768-7.213l26.689-29.416a28.17 28.17 0 0 0 7.293-19.739l-.061-2.081a28.149 28.149 0 0 0-6.758-17.506 28.094 28.094 0 0 0-16.264-9.364 28.219 28.219 0 0 1-15.455-8.465L373.088 292.7a27.778 27.778 0 0 0-5.808-4.748 28.047 28.047 0 0 0-6.859-3.051 61.98 61.98 0 0 1-40.305-36.911l-2.111-5.404a73.785 73.785 0 0 1 5.172-64.297l12.819-21.729a73.717 73.717 0 0 1 50.67-35.154l31.396-5.556M15.824 319.953l41.779-21.264a40.371 40.371 0 0 0 22.055-35.41l.083-5.908c.287-20.342 15.664-37.292 35.882-39.552l13.929-1.557a40.371 40.371 0 0 0 33.883-27.562l13.826-42.237c5.431-16.591 20.91-27.811 38.368-27.811h0c22.296 0 40.371-18.075 40.371-40.371V7.5" style="stroke-width:15;stroke-linecap:round;stroke-linejoin:round;stroke-miterlimit:10;" fill="none" stroke="#000000" stroke-width="15" stroke-linecap="round" stroke-linejoin="round" stroke-miterlimit="10" data-original="#000000" class=""></path><path d="M25.21 348.28C13.78 319.75 7.5 288.61 7.5 256c0-44.84 11.88-86.91 32.67-123.24M40.46 379.76C83.36 454.31 163.82 504.5 256 504.5c101.36 0 188.55-60.69 227.2-147.72M497.32 196.48c4.7 19.06 7.18 39 7.18 59.52 0 23.53-3.27 46.3-9.39 67.87M430.87 79.45a249.653 249.653 0 0 0-52.18-39.59M99.43 63.02C142.16 28.31 196.65 7.5 256 7.5c32.18 0 62.92 6.12 91.14 17.25" style="stroke-width:15;stroke-linecap:round;stroke-linejoin:round;stroke-miterlimit:10;" fill="none" stroke="#000000" stroke-width="15" stroke-linecap="round" stroke-linejoin="round" stroke-miterlimit="10" data-original="#000000" class=""></path><path d="M193.471 293.315a20.1 20.1 0 0 1 7.253-3.505l7.475-1.919c12.577-3.212 24.89 6.061 25.274 19.031a20.321 20.321 0 0 0 2.697 9.526 20.206 20.206 0 0 0 6.879 7.101l21.607 13.395a20.259 20.259 0 0 1 9.597 17.223v34.942c0 4.829 1.727 9.516 4.879 13.183l9.152 10.677c8.556 9.991 5.475 25.375-6.283 31.285l-21.557 10.849a20.32 20.32 0 0 1-9.102 2.162h-23.315a35.848 35.848 0 0 1-31.164-18.132l-14.94-26.264a35.973 35.973 0 0 1-2.657-5.829M472.417 128.485h5.819c14.505 0 26.264 11.759 26.264 26.264v28.285c0 8.926-7.236 16.163-16.163 16.163h-78.793c-8.926 0-16.163-7.236-16.163-16.163V154.75c0-14.505 11.759-26.264 26.264-26.264h5.819" style="stroke-width:15;stroke-linecap:round;stroke-linejoin:round;stroke-miterlimit:10;" fill="none" stroke="#000000" stroke-width="15" stroke-linecap="round" stroke-linejoin="round" stroke-miterlimit="10" data-original="#000000" class=""></path><circle cx="448.941" cy="106.26" r="32.325" style="stroke-width:15;stroke-linecap:round;stroke-linejoin:round;stroke-miterlimit:10;" fill="none" stroke="#000000" stroke-width="15" stroke-linecap="round" stroke-linejoin="round" stroke-miterlimit="10" data-original="#000000" class=""></circle><path d="M192.198 336.333h5.819c14.505 0 26.264 11.759 26.264 26.264v28.285c0 8.926-7.236 16.163-16.163 16.163h-78.793c-8.926 0-16.163-7.236-16.163-16.163v-28.285c0-14.505 11.759-26.264 26.264-26.264h5.819" style="stroke-width:15;stroke-linecap:round;stroke-linejoin:round;stroke-miterlimit:10;" fill="none" stroke="#000000" stroke-width="15" stroke-linecap="round" stroke-linejoin="round" stroke-miterlimit="10" data-original="#000000" class=""></path><circle cx="168.722" cy="314.108" r="32.325" style="stroke-width:15;stroke-linecap:round;stroke-linejoin:round;stroke-miterlimit:10;" fill="none" stroke="#000000" stroke-width="15" stroke-linecap="round" stroke-linejoin="round" stroke-miterlimit="10" data-original="#000000" class=""></circle><path d="M86.535 62.05h5.819c14.505 0 26.264 11.759 26.264 26.264v28.285c0 8.926-7.236 16.163-16.163 16.163H23.663c-8.926 0-16.163-7.236-16.163-16.163V88.314c0-14.505 11.759-26.264 26.264-26.264h5.819" style="stroke-width:15;stroke-linecap:round;stroke-linejoin:round;stroke-miterlimit:10;" fill="none" stroke="#000000" stroke-width="15" stroke-linecap="round" stroke-linejoin="round" stroke-miterlimit="10" data-original="#000000" class=""></path><circle cx="63.059" cy="39.825" r="32.325" style="stroke-width:15;stroke-linecap:round;stroke-linejoin:round;stroke-miterlimit:10;" fill="none" stroke="#000000" stroke-width="15" stroke-linecap="round" stroke-linejoin="round" stroke-miterlimit="10" data-original="#000000" class=""></circle><path d="m63.059 132.759 2.762 5.327" style="stroke-width:15;stroke-linecap:round;stroke-linejoin:round;" fill="none" stroke="#000000" stroke-width="15" stroke-linecap="round" stroke-linejoin="round" data-original="#000000" class=""></path><path d="m80.821 167.015 54.376 104.869" style="stroke-width:15;stroke-linecap:round;stroke-linejoin:round;stroke-dasharray:12.2202,32.5871;" fill="none" stroke="#000000" stroke-width="15" stroke-linecap="round" stroke-linejoin="round" stroke-dasharray="12.2202,32.5871" data-original="#000000" class=""></path><path d="m142.698 286.349 2.762 5.327M448.941 199.195l-4.753 3.662" style="stroke-width:15;stroke-linecap:round;stroke-linejoin:round;" fill="none" stroke="#000000" stroke-width="15" stroke-linecap="round" stroke-linejoin="round" data-original="#000000" class=""></path><path d="m416.867 223.903-174.172 134.17" style="stroke-width:15;stroke-linecap:round;stroke-linejoin:round;stroke-dasharray:12.9328,34.4875;" fill="none" stroke="#000000" stroke-width="15" stroke-linecap="round" stroke-linejoin="round" stroke-dasharray="12.9328,34.4875" data-original="#000000" class=""></path><path d="m229.034 368.596-4.753 3.662M118.618 97.405l5.832 1.41" style="stroke-width:15;stroke-linecap:round;stroke-linejoin:round;" fill="none" stroke="#000000" stroke-width="15" stroke-linecap="round" stroke-linejoin="round" data-original="#000000" class=""></path><path d="m157.859 106.893 212.986 51.499" style="stroke-width:15;stroke-linecap:round;stroke-linejoin:round;stroke-dasharray:12.8896,34.3723;" fill="none" stroke="#000000" stroke-width="15" stroke-linecap="round" stroke-linejoin="round" stroke-dasharray="12.8896,34.3723" data-original="#000000" class=""></path><path d="m387.55 162.431 5.832 1.41" style="stroke-width:15;stroke-linecap:round;stroke-linejoin:round;" fill="none" stroke="#000000" stroke-width="15" stroke-linecap="round" stroke-linejoin="round" data-original="#000000" class=""></path></g></svg>