<svg xmlns="http://www.w3.org/2000/svg" version="1.1" xmlns:xlink="http://www.w3.org/1999/xlink" width="512" height="512" x="0" y="0" viewBox="0 0 511 512" style="enable-background:new 0 0 512 512" xml:space="preserve" class=""><g><path fill="#fc5659" d="m255.871 229.996-76.414-3.902-53.336 28.668-8.055 80.25 33.547 59.75 25.176 59.683 72.668 7.899 90.926-7.899 23.738-66.183 29.137-72.168-17.692-55.309-27.308-30.789zm0 0" opacity="1" data-original="#fc5659" class=""></path><path fill="#ffd54f" d="M323.719 53.852c0-5.887-5.649-10.125-11.297-8.48l-22.055 6.425c-6.687 1.945-12.894-4.258-10.945-10.945l6.426-22.055c1.644-5.649-2.594-11.297-8.477-11.297h-42.996c-5.887 0-10.125 5.648-8.48 11.297l6.425 22.055c1.946 6.687-4.258 12.894-10.945 10.945L199.32 45.37c-5.648-1.644-11.297 2.594-11.297 8.48v42.997c0 5.882 5.649 10.12 11.297 8.472l22.055-6.422c6.687-1.949 12.895 4.258 10.945 10.946l-6.425 22.054c-1.645 5.649 2.593 11.297 8.48 11.297h42.996c5.883 0 10.121-5.648 8.477-11.297l-6.426-22.054c-1.945-6.688 4.258-12.895 10.945-10.946l22.055 6.422c5.648 1.649 11.297-2.59 11.297-8.472zm0 0" opacity="1" data-original="#ffd54f" class=""></path><path fill="#fabc36" d="M255.871 99.094a84.933 84.933 0 0 0-24.543 3.617 8.666 8.666 0 0 1 .992 7.133l-6.422 22.054c-1.644 5.649 2.594 11.297 8.477 11.297h42.996c5.883 0 10.121-5.648 8.477-11.297l-6.422-22.054a8.68 8.68 0 0 1 .992-7.133 84.96 84.96 0 0 0-24.547-3.617zm0 0" opacity="1" data-original="#fabc36" class=""></path><path fill="#fc5659" d="M316.145 184.363c0 33.29-26.985 60.274-60.274 60.274-33.285 0-60.27-26.985-60.27-60.274 0-33.285 26.985-60.27 60.27-60.27 33.29 0 60.274 26.985 60.274 60.27zm0 0" opacity="1" data-original="#fc5659" class=""></path><path fill="#f24447" d="M225.598 184.363c0-28.105 19.242-51.718 45.273-58.386a60.284 60.284 0 0 0-15-1.883c-33.285 0-60.273 26.984-60.273 60.27 0 33.288 26.988 60.273 60.273 60.273 5.18 0 10.203-.657 15-1.883-26.027-6.668-45.273-30.281-45.273-58.39zM193.3 450.004l-10.363-3.074a9.504 9.504 0 0 1-4.492-2.868c-33.168-37.566-54.507-77.457-61.71-115.359-4.637-24.41-3.188-47.223 4.19-65.969l8.634-21.933-23.528 1.469-.332.015c-.457.024-.914.047-1.363.082-19.738 1.613-36.059 9.887-47.203 23.922-13.422 16.902-17.863 40.797-12.5 67.277 6.363 31.418 26.039 65.086 56.906 97.372a9.626 9.626 0 0 1 2.688 6.921 9.628 9.628 0 0 1-2.997 6.793 9.88 9.88 0 0 1-1.359 1.07l-13.262 8.825 24.457 32.348h83.489zM318.445 450.004l10.36-3.074a9.504 9.504 0 0 0 4.492-2.868c33.172-37.566 54.508-77.457 61.71-115.359 4.641-24.41 3.192-47.223-4.187-65.969l-8.632-21.933 23.523 1.469.336.015c.457.024.914.047 1.363.082 19.735 1.613 36.059 9.887 47.203 23.922 13.422 16.902 17.86 40.797 12.496 67.277-6.359 31.418-26.039 65.086-56.906 97.372a9.658 9.658 0 0 0-2.687 6.921 9.644 9.644 0 0 0 2.996 6.793c.375.36.82.707 1.363 1.07l13.262 8.825-24.457 32.348H317.19zm0 0" opacity="1" data-original="#f24447" class=""></path><path fill="#ffd54f" d="M59.336 330.586c-4.469-22.07-1.078-41.594 9.543-54.973 8.5-10.703 21.183-17.031 36.676-18.297 9.632-.789 19.972.414 30.695 3.493l35.766-39.403c-23.957-10.582-47.977-15.172-70.485-13.328-29.039 2.371-54.375 15.445-71.344 36.813-19.84 24.988-26.683 58.902-19.273 95.5 7.656 37.8 30.395 77.328 65.762 114.32a24.63 24.63 0 0 0 17.855 7.633 24.607 24.607 0 0 0 17.067-6.852c9.863-9.426 10.215-25.062.785-34.922-28.906-30.234-47.25-61.347-53.047-89.984zM481.555 244.895c-16.965-21.368-42.305-34.446-71.344-36.817-22.3-1.824-46.09 2.664-69.828 13.043l35.187 39.664c10.696-3.062 21.004-4.254 30.618-3.469 15.496 1.266 28.18 7.594 36.675 18.297 10.625 13.38 14.016 32.903 9.547 54.973-5.8 28.637-24.144 59.75-53.047 89.984-9.43 9.86-9.078 25.496.782 34.922a24.62 24.62 0 0 0 17.066 6.852c6.508-.004 13.008-2.559 17.86-7.633 35.367-36.992 58.105-76.523 65.761-114.32 7.406-36.594.563-70.512-19.277-95.496zm0 0" opacity="1" data-original="#ffd54f" class=""></path><path fill="#fabc36" d="M102.695 208.004c-1.27 1.387-2.511 2.8-3.715 4.254-14.011 16.945-23.222 37.441-27.378 60.25 8.386-8.817 20.03-14.055 33.957-15.192 9.632-.789 19.968.414 30.695 3.493l35.762-39.403c-23.547-10.402-47.149-14.996-69.32-13.402zm0 0" opacity="1" data-original="#fabc36" class=""></path><path fill="#ffd54f" d="M185.727 462.344c-6.836 0-13.641-2.824-18.524-8.356-34.953-39.586-57.5-81.937-65.203-122.484-7.559-39.754-.418-75.313 20.102-100.129 25.39-30.707 77.171-48.934 146.351-7.996 11.738 6.95 15.625 22.098 8.676 33.84-6.95 11.742-22.098 15.625-33.84 8.676-36-21.305-67.07-22.442-83.117-3.036-10.817 13.079-14.328 34.739-9.64 59.418 4.218 22.2 16.96 57.399 53.702 99.012 9.028 10.227 8.059 25.84-2.168 34.867a24.596 24.596 0 0 1-16.34 6.188zm0 0" opacity="1" data-original="#ffd54f" class=""></path><path fill="#fabc36" d="M406.188 257.316c13.925 1.137 25.57 6.375 33.957 15.192-4.157-22.809-13.372-43.305-27.383-60.25a113.39 113.39 0 0 0-3.711-4.254c-21.969-1.578-45.34 2.918-68.668 13.117l35.183 39.664c10.7-3.062 21.008-4.254 30.622-3.469zm0 0" opacity="1" data-original="#fabc36" class=""></path><path fill="#ffd54f" d="M326.016 462.344a24.61 24.61 0 0 1-16.34-6.188c-10.227-9.027-11.2-24.636-2.168-34.867 36.742-41.61 49.484-76.809 53.703-99.012 4.687-24.68 1.176-46.336-9.64-59.418-16.048-19.402-47.118-18.265-83.118 3.036-11.742 6.949-26.89 3.066-33.84-8.676s-3.062-26.89 8.68-33.84c69.176-40.938 120.957-22.707 146.348 8 20.52 24.812 27.66 60.371 20.105 100.125-7.707 40.547-30.254 82.902-65.203 122.488-4.883 5.528-11.688 8.352-18.527 8.352zm0 0" opacity="1" data-original="#ffd54f" class=""></path><g fill="#fabc36"><path d="M310.574 417.766a386.28 386.28 0 0 1-3.066 3.523c-8.485 9.61-8.137 23.969.414 33.156a54.497 54.497 0 0 0 2.652-16.804zM310.574 249.75v-40.684c0-3.058-.265-6.058-.75-8.984-19.734 1.734-42.039 8.805-66.531 23.297-11.742 6.95-15.629 22.098-8.68 33.84 6.95 11.738 22.098 15.625 33.84 8.676 15.168-8.977 29.457-14.356 42.121-16.145zm0 0" fill="#fabc36" opacity="1" data-original="#fabc36" class=""></path><path d="M268.453 223.379c-24.492-14.492-46.8-21.563-66.531-23.297a54.535 54.535 0 0 0-.754 8.984v40.684c12.664 1.79 26.953 7.168 42.125 16.145 11.738 6.949 26.89 3.066 33.836-8.676 6.95-11.742 3.062-26.895-8.676-33.84zM201.172 417.766v19.875c0 5.863.933 11.507 2.652 16.804 8.551-9.187 8.895-23.547.41-33.156a333.295 333.295 0 0 1-3.062-3.523zm0 0" fill="#fabc36" opacity="1" data-original="#fabc36" class=""></path></g><path fill="#ffd54f" d="M255.871 462.344c-13.64 0-24.7-11.063-24.7-24.703V209.066c0-13.64 11.06-24.703 24.7-24.703 13.645 0 24.703 11.063 24.703 24.703v228.575c0 13.64-11.058 24.703-24.703 24.703zm0 0" opacity="1" data-original="#ffd54f" class=""></path><path fill="#fabc36" d="M463.617 420.57H48.125c-11.793 0-21.355 9.563-21.355 21.356v41.219c0 11.796 9.562 21.355 21.355 21.355h415.492c11.793 0 21.352-9.563 21.352-21.355v-41.22c0-11.796-9.559-21.355-21.352-21.355zm0 0" opacity="1" data-original="#fabc36" class=""></path><path fill="#f24447" d="M274.977 462.344c0 10.547-8.555 19.101-19.106 19.101-10.55 0-19.101-8.554-19.101-19.101 0-10.551 8.55-19.106 19.101-19.106 10.55 0 19.106 8.555 19.106 19.106zm0 0" opacity="1" data-original="#f24447" class=""></path><path fill="#029be5" d="M360.129 462.344c0 10.547-8.55 19.101-19.102 19.101-10.55 0-19.101-8.554-19.101-19.101 0-10.551 8.55-19.106 19.101-19.106 10.551 0 19.102 8.555 19.102 19.106zm0 0" opacity="1" data-original="#029be5"></path><path fill="#4d984d" d="M445.285 462.344c0 10.547-8.555 19.101-19.105 19.101-10.547 0-19.102-8.554-19.102-19.101 0-10.551 8.555-19.106 19.102-19.106 10.55 0 19.105 8.555 19.105 19.106zm0 0" opacity="1" data-original="#4d984d"></path><path fill="#029be5" d="M189.82 462.344c0 10.547-8.55 19.101-19.101 19.101s-19.106-8.554-19.106-19.101c0-10.551 8.555-19.106 19.106-19.106s19.101 8.555 19.101 19.106zm0 0" opacity="1" data-original="#029be5"></path><path fill="#4d984d" d="M104.664 462.344c0 10.547-8.55 19.101-19.102 19.101s-19.101-8.554-19.101-19.101c0-10.551 8.55-19.106 19.102-19.106s19.101 8.555 19.101 19.106zm0 0" opacity="1" data-original="#4d984d"></path><path d="M255.871 435.738c-14.668 0-26.601 11.934-26.601 26.606 0 14.668 11.933 26.601 26.601 26.601 14.672 0 26.606-11.933 26.606-26.601 0-14.672-11.934-26.606-26.606-26.606zm0 38.207c-6.398 0-11.601-5.207-11.601-11.601 0-6.399 5.203-11.606 11.601-11.606 6.399 0 11.606 5.207 11.606 11.606 0 6.394-5.207 11.601-11.606 11.601zM314.426 462.344c0 14.668 11.933 26.601 26.601 26.601s26.602-11.933 26.602-26.601c0-14.672-11.934-26.606-26.602-26.606-14.668 0-26.601 11.934-26.601 26.606zm38.203 0c0 6.394-5.203 11.601-11.602 11.601-6.398 0-11.601-5.207-11.601-11.601 0-6.399 5.203-11.606 11.601-11.606 6.399 0 11.602 5.207 11.602 11.606zM426.184 488.945c14.668 0 26.601-11.933 26.601-26.601 0-14.672-11.933-26.606-26.601-26.606-14.672 0-26.606 11.934-26.606 26.606 0 14.668 11.934 26.601 26.606 26.601zm0-38.207c6.398 0 11.601 5.207 11.601 11.606 0 6.394-5.203 11.601-11.601 11.601-6.399 0-11.606-5.207-11.606-11.601 0-6.399 5.207-11.606 11.606-11.606zM144.113 462.344c0 14.668 11.934 26.601 26.606 26.601 14.668 0 26.601-11.933 26.601-26.601 0-14.672-11.933-26.606-26.601-26.606-14.672 0-26.606 11.934-26.606 26.606zm38.207 0c0 6.394-5.203 11.601-11.601 11.601s-11.606-5.207-11.606-11.601c0-6.399 5.207-11.606 11.606-11.606s11.601 5.207 11.601 11.606zM58.96 462.344c0 14.668 11.935 26.601 26.602 26.601s26.602-11.933 26.602-26.601c0-14.672-11.934-26.606-26.602-26.606s-26.601 11.934-26.601 26.606zm38.204 0c0 6.394-5.203 11.601-11.601 11.601s-11.602-5.207-11.602-11.601c0-6.399 5.203-11.606 11.601-11.606s11.602 5.207 11.602 11.606zm0 0" fill="#000000" opacity="1" data-original="#000000" class=""></path><path d="M410.824 200.602c-13.758-1.122-28.222.027-42.824 3.406-13.316-7.223-28.512-11.274-44.816-11.797.3-2.602.46-5.223.46-7.848 0-23.96-12.511-45.043-31.335-57.097l-5.684-19.52c-.29-.988.66-1.937 1.645-1.648l22.054 6.425c1.496.434 3.04.657 4.586.657 4.281 0 8.34-1.664 11.418-4.68a16.199 16.199 0 0 0 4.89-11.656V53.852c0-9.008-7.316-16.336-16.312-16.336-1.543 0-3.086.222-4.582.656l-22.054 6.426c-.993.285-1.934-.668-1.645-1.649l6.422-22.054C296.047 10.594 288.067 0 277.37 0h-42.996c-10.71 0-18.672 10.613-15.676 20.895l6.422 22.054c.29.992-.656 1.934-1.648 1.649l-22.051-6.426c-1.5-.434-3.04-.656-4.586-.656-8.992 0-16.313 7.328-16.313 16.336v42.996c0 9.004 7.32 16.332 16.313 16.332 1.547 0 3.086-.22 4.586-.657l22.05-6.421c1-.29 1.934.664 1.65 1.644l-5.685 19.52c-18.824 12.054-31.335 33.136-31.335 57.097a67.9 67.9 0 0 0 .472 7.922c-16.27.512-31.469 4.477-44.844 11.719-14.597-3.375-29.058-4.524-42.808-3.402-31.129 2.543-58.332 16.617-76.606 39.628C3.078 266.977-4.293 303.078 3.562 341.88c4.95 24.422 15.774 49.266 32.196 73.98-9.738 4.637-16.488 14.579-16.488 26.067v41.219c0 15.91 12.945 28.855 28.855 28.855h323.809a7.5 7.5 0 1 0 0-15H48.125c-7.64 0-13.855-6.215-13.855-13.855v-41.22c0-7.64 6.214-13.855 13.859-13.855h415.488c7.637 0 13.852 6.215 13.852 13.856v41.219c0 7.64-6.215 13.855-13.852 13.855h-61.746a7.5 7.5 0 1 0 0 15h61.746c15.91 0 28.852-12.945 28.852-28.855v-41.22c0-11.487-6.746-21.425-16.485-26.066 16.422-24.71 27.25-49.554 32.196-73.98 7.855-38.8.488-74.902-20.754-101.649-18.266-23.011-45.473-37.085-76.602-39.628zM223.887 91.082c-1.551-.02-3.102.18-4.61.617l-22.05 6.422c-.836.242-1.704-.398-1.704-1.273V53.852c0-.872.868-1.52 1.704-1.278l22.05 6.422c6.403 1.867 13.575-.473 17.645-5.898 3.101-4.133 4.05-9.364 2.598-14.344l-6.422-22.055c-.246-.84.406-1.699 1.277-1.699h42.996c.871 0 1.52.855 1.274 1.7l-6.422 22.054c-1.453 4.98-.504 10.21 2.597 14.348 4.04 5.382 11.188 7.777 17.645 5.894l22.055-6.422c.835-.246 1.699.403 1.699 1.278v42.996c0 .87-.86 1.515-1.7 1.273L292.466 91.7c-6.477-1.886-13.594.5-17.645 5.899-3.101 4.132-4.05 9.363-2.597 14.343l2.101 7.215c-.176-.05-.351-.09-.527-.14a67.616 67.616 0 0 0-17.926-2.422c-6.035 0-12.101.804-17.918 2.422-.18.05-.36.09-.535.14 0 0 2.102-7.207 2.102-7.215 3.011-10.336-4.973-20.714-15.633-20.859zM52 413.07c-17.469-24.93-28.812-49.863-33.734-74.168-6.965-34.39-.645-66.12 17.797-89.343 15.664-19.727 39.132-31.805 66.082-34.004 7.847-.645 15.996-.45 24.28.582a94.411 94.411 0 0 0-7.698 7.668c-5.047 5.648-9.426 11.918-13.067 18.558a107.9 107.9 0 0 0-3.86 7.801c-16.198 2.012-29.562 9.16-38.792 20.785-12.024 15.14-15.938 36.852-11.024 61.125 5.262 25.98 20.207 53.738 43.5 80.996zm63.617 0c-26.66-28.465-43.558-57.449-48.93-83.972-4.023-19.864-1.156-37.203 8.067-48.82 5.258-6.622 12.5-11.255 21.246-13.696-5.363 19.879-5.91 42.41-1.367 66.32 5.035 26.5 15.988 53.41 32.605 80.168zm108.055-165.058c-29.652-11.254-54.524-7.778-69.277 10.066-12.247 14.809-16.336 38.719-11.23 65.602 2.241 11.78 6.183 24.062 11.718 36.5 1.683 3.785 6.113 5.488 9.898 3.804s5.489-6.117 3.805-9.902c-5.066-11.383-8.66-22.555-10.684-33.203-4.273-22.48-1.336-41.887 8.051-53.242 11.145-13.477 32.031-14.649 57.715-3.422V413.07h-16.621c-9.594-11.168-18.024-22.535-25.04-33.832a7.505 7.505 0 0 0-10.331-2.41 7.5 7.5 0 0 0-2.41 10.328c5.375 8.653 11.507 17.324 18.312 25.914h-42.512c-18.515-27.808-30.52-55.703-35.699-82.968-4.988-26.235-3.265-50.434 4.738-70.504 13.18-33.051 46.887-55.602 82.82-52.348.106.008.2.031.305.04 8.958.444 17.817 2.046 26.438 4.48v36.242zm49.402 165.058h-34.402V209.066c0-9.332 7.863-17.203 17.203-17.203 9.242 0 17.2 7.961 17.2 17.203zm11.012-219.508a32.219 32.219 0 0 0-12.762-12.742 32.266 32.266 0 0 0-15.449-3.957 32.37 32.37 0 0 0-15.445 3.953c-6.41 3.504-11.602 9.27-14.367 16.04-.325-.086-1.176-.305-1.274-.329-7.09-1.847-14.121-3.12-21.023-3.793a53.092 53.092 0 0 1-.664-8.37c0-19.938 11.117-37.329 27.48-46.302a52.892 52.892 0 0 1 25.293-6.468 52.954 52.954 0 0 1 25.316 6.484c16.348 8.977 27.457 26.356 27.457 46.285 0 2.809-.222 5.606-.668 8.371-.93.09-1.867.192-2.804.305a135.58 135.58 0 0 0-14.895 2.656c-.62.145-3.683.914-4.597 1.16-.047-.101-1.063-2.32-1.598-3.293zm20.621 219.508h-16.633V264.22c11.48-5.004 22.332-7.64 31.61-7.64 11.254 0 20.039 3.722 26.105 11.058 9.39 11.355 12.324 30.761 8.055 53.242-3.926 20.656-15.676 53.258-49.137 92.191zm61.973 0h-42.512c29.5-37.203 40.48-68.715 44.414-89.39 5.106-26.883 1.012-50.793-11.23-65.602-8.926-10.793-21.954-16.5-37.668-16.5-9.77 0-20.368 2.16-31.61 6.43V211.77c10.168-2.875 20.875-4.625 31.457-4.625 18.266 0 32.504 4.921 43.23 11.167 15.938 9.278 28.052 24.196 34.86 41.247 8.016 20.078 9.746 44.289 4.758 70.543-5.184 27.265-17.188 55.16-35.7 82.968zm29.449 0h-11.621c16.613-26.758 27.57-53.668 32.605-80.168 4.543-23.91 3.996-46.441-1.37-66.316 8.75 2.437 15.991 7.07 21.25 13.691 9.222 11.618 12.089 28.957 8.066 48.82-5.371 26.524-22.27 55.508-48.93 83.973zm97.351-74.168c-4.921 24.305-16.265 49.243-33.734 74.168h-43.484c23.293-27.258 38.238-55.011 43.496-80.996 4.918-24.277 1.004-45.984-11.02-61.125-9.23-11.625-22.597-18.77-38.793-20.785-.039-.086-.082-.168-.117-.254-3.41-7.62-7.723-14.848-12.879-21.418a94.609 94.609 0 0 0-11.636-12.355c8.285-1.028 16.437-1.227 24.289-.582 26.949 2.203 50.418 14.277 66.078 34.004 18.441 23.222 24.761 54.953 17.8 89.343zm0 0" fill="#000000" opacity="1" data-original="#000000" class=""></path></g></svg>