<?xml version="1.0" encoding="utf-8"?>
<!-- Generator: Adobe Illustrator 24.3.0, SVG Export Plug-In . SVG Version: 6.00 Build 0)  -->
<svg version="1.1" id="Capa_1" xmlns="http://www.w3.org/2000/svg" xmlns:xlink="http://www.w3.org/1999/xlink" x="0px" y="0px"
	 viewBox="0 0 500 475.5" style="enable-background:new 0 0 500 475.5;" xml:space="preserve">
<style type="text/css">
	.st0{fill:#FFD200;}
	.st1{fill:#FFED00;}
	.st2{fill:#1D1D1B;}
</style>
<g>
	<polygon class="st0" points="250,6.7 325.3,159.2 493.6,183.7 371.8,302.4 400.6,470.1 250,391 99.4,470.1 128.2,302.4 6.4,183.7 
		174.7,159.2 	"/>
	<polygon class="st1" points="250,6.7 250,391 99.4,470.1 128.2,302.4 6.4,183.7 174.7,159.2 	"/>
	<path class="st2" d="M404.5,475.5L250,394.3L95.5,475.5l29.5-172L0,181.6l172.7-25.1L250,0l77.3,156.5L500,181.6L375,303.5
		L404.5,475.5z M250,387.6l146.6,77.1l-28-163.3l118.6-115.6l-164-23.8L250,13.4l-73.3,148.6l-164,23.8l118.6,115.6l-28,163.3
		L250,387.6z"/>
</g>
</svg>
