<svg viewBox="0 0 96 96" xmlns="http://www.w3.org/2000/svg"><path d="M82.24 22.244a5.999 5.999 0 1 0-8.484-8.484l-4.301 4.301A41.15 41.15 0 0 0 48 12.002c-22.159 0-35.681 15.702-46.99 32.67a5.984 5.984 0 0 0 0 6.656 110.652 110.652 0 0 0 15.811 19.367l-3.061 3.061a5.999 5.999 0 1 0 8.484 8.484ZM13.268 48C25.326 30.792 35.274 24.002 48 24.002a29.354 29.354 0 0 1 12.672 2.843l-9.593 9.592A11.155 11.155 0 0 0 48 36.001 12.011 12.011 0 0 0 36 48a11.159 11.159 0 0 0 .437 3.079L25.301 62.215A88.013 88.013 0 0 1 13.268 48ZM94.99 44.672a154.365 154.365 0 0 0-7.672-10.553l-8.546 8.546c1.301 1.667 2.613 3.413 3.96 5.335-11.556 16.492-21.201 23.342-33.184 23.89L38.57 82.866A42.547 42.547 0 0 0 48 83.998c22.159 0 35.681-15.702 46.99-32.67a5.984 5.984 0 0 0 0-6.656Z" fill="#c0c0c0" class="fill-000000"></path></svg>