<svg xmlns="http://www.w3.org/2000/svg" version="1.1" xmlns:xlink="http://www.w3.org/1999/xlink" width="512" height="512" x="0" y="0" viewBox="0 0 512 512" style="enable-background:new 0 0 512 512" xml:space="preserve" class=""><g><path d="M479.926 346.232a64.801 64.801 0 0 1-4.801 24.56c-12.851 17.134-19.72 23.311-33.31 30.395l-50.259-.141c-20.797-10.841-38.118-29.7-38.118-54.776 0-19.318 7.907-32.328 18.294-48.609 11.483-10.219 26.612-16.428 43.193-16.428 35.9-.001 65.001 29.1 65.001 64.999z" style="" fill="#f5f8f9" data-original="#f5f8f9" class=""></path><circle cx="414.926" cy="330.232" r="18.5" style="" fill="#a6764a" data-original="#a6764a"></circle><path d="M475.126 370.792c-5.83 14.29-16.611 26.04-30.201 33.12l-30 1.48-30-1.48c-20.8-10.84-35-32.6-35-57.68 0-19.32 8.428-36.672 21.809-48.572a64.749 64.749 0 0 0-4.809 24.572c0 25.08 14.2 46.84 35 57.68 8.97 4.68 19.18 7.32 30 7.32s21.03-2.64 30-7.32a64.8 64.8 0 0 0 13.201-9.12z" style="" fill="#e8edf2" data-original="#e8edf2"></path><path d="m444.928 397.979-.002-8.758c0-8.28-6.72-15-15-15h-30c-8.28 0-15 6.72-15 15l-.001 3.86c17.675 7.448 40.32 8.783 60.003 4.898z" style="" fill="#2baef7" data-original="#2baef7"></path><path d="M444.925 389.222v14.69c-8.97 4.68-19.18 7.32-30 7.32s-21.03-2.64-30-7.32v-14.69c0-6.32 3.91-11.73 9.44-13.93a66.1 66.1 0 0 0 7.56 4.62c8.97 4.68 19.18 7.32 30 7.32 4.33 0 8.56-.42 12.65-1.23.23 1.04.35 2.11.35 3.22z" style="" fill="#21a1e8" data-original="#21a1e8" class=""></path><path d="M162.074 346.232a64.801 64.801 0 0 1-4.801 24.56c-12.851 17.134-19.72 23.311-33.31 30.395l-50.259-.141c-20.797-10.841-38.118-29.7-38.118-54.776 0-19.318 7.907-32.328 18.294-48.609 11.483-10.219 26.612-16.428 43.193-16.428 35.9-.001 65.001 29.1 65.001 64.999z" style="" fill="#f5f8f9" data-original="#f5f8f9" class=""></path><circle cx="97.074" cy="330.232" r="18.5" style="" fill="#a6764a" data-original="#a6764a"></circle><path d="M157.274 370.792c-5.83 14.29-16.611 26.04-30.201 33.12l-30 1.48-30-1.48c-20.8-10.84-35-32.6-35-57.68 0-19.32 8.428-36.672 21.809-48.572a64.749 64.749 0 0 0-4.809 24.572c0 25.08 14.2 46.84 35 57.68 8.97 4.68 19.18 7.32 30 7.32s21.03-2.64 30-7.32a64.8 64.8 0 0 0 13.201-9.12z" style="" fill="#e8edf2" data-original="#e8edf2"></path><path d="m127.076 397.979-.002-8.758c0-8.28-6.72-15-15-15h-30c-8.28 0-15 6.72-15 15l-.001 3.86c17.675 7.448 40.32 8.783 60.003 4.898z" style="" fill="#ff529d" data-original="#ff529d"></path><path d="M127.073 389.222v14.69c-8.97 4.68-19.18 7.32-30 7.32s-21.03-2.64-30-7.32v-14.69c0-6.32 3.91-11.73 9.44-13.93a66.1 66.1 0 0 0 7.56 4.62c8.97 4.68 19.18 7.32 30 7.32 4.33 0 8.56-.42 12.65-1.23.23 1.04.35 2.11.35 3.22z" style="" fill="#ff318e" data-original="#ff318e"></path><path d="M479.927 163.5a64.801 64.801 0 0 1-4.801 24.56c-12.851 17.134-19.72 23.311-33.31 30.395l-50.259-.141c-20.797-10.841-38.118-29.7-38.118-54.776 0-19.318 7.907-32.328 18.294-48.609C383.217 104.71 398.346 98.5 414.927 98.5c35.899 0 65 29.101 65 65z" style="" fill="#f5f8f9" data-original="#f5f8f9" class=""></path><circle cx="414.927" cy="147.5" r="18.5" style="" fill="#ffd8a1" data-original="#ffd8a1"></circle><path d="M475.126 188.06c-5.83 14.29-16.611 26.04-30.201 33.12l-30 1.48-30-1.48c-20.8-10.84-35-32.6-35-57.68 0-19.32 8.428-36.672 21.809-48.572a64.749 64.749 0 0 0-4.809 24.572c0 25.08 14.2 46.84 35 57.68 8.97 4.68 19.18 7.32 30 7.32s21.03-2.64 30-7.32a64.773 64.773 0 0 0 13.201-9.12z" style="" fill="#e8edf2" data-original="#e8edf2"></path><path d="m444.929 215.248-.002-8.758c0-8.28-6.72-15-15-15h-30c-8.28 0-15 6.72-15 15l-.001 3.86c17.675 7.448 40.32 8.783 60.003 4.898z" style="" fill="#ffe97b" data-original="#ffe97b"></path><path d="M444.926 206.49v14.69c-8.97 4.68-19.18 7.32-30 7.32s-21.03-2.64-30-7.32v-14.69c0-6.32 3.91-11.73 9.44-13.93a66.1 66.1 0 0 0 7.56 4.62c8.97 4.68 19.18 7.32 30 7.32 4.33 0 8.56-.42 12.65-1.23.23 1.04.35 2.11.35 3.22z" style="" fill="#ffde2e" data-original="#ffde2e"></path><path d="M162.074 163.5a64.801 64.801 0 0 1-4.801 24.56c-12.851 17.134-19.72 23.311-33.31 30.395l-50.259-.141c-20.797-10.841-38.118-29.7-38.118-54.776 0-19.318 7.907-32.328 18.294-48.609C65.364 104.71 80.493 98.5 97.074 98.5c35.898 0 65 29.101 65 65z" style="" fill="#f5f8f9" data-original="#f5f8f9" class=""></path><circle cx="97.074" cy="147.5" r="18.5" style="" fill="#ffd8a1" data-original="#ffd8a1"></circle><path d="M157.273 188.06c-5.83 14.29-16.611 26.04-30.2 33.12l-30 1.48-30-1.48c-20.8-10.84-35-32.6-35-57.68 0-19.32 8.428-36.672 21.809-48.572a64.749 64.749 0 0 0-4.809 24.572c0 25.08 14.2 46.84 35 57.68 8.97 4.68 19.18 7.32 30 7.32s21.03-2.64 30-7.32a64.821 64.821 0 0 0 13.2-9.12z" style="" fill="#e8edf2" data-original="#e8edf2"></path><path d="m127.076 215.248-.002-8.758c0-8.28-6.72-15-15-15h-30c-8.28 0-15 6.72-15 15l-.001 3.86c17.674 7.448 40.319 8.783 60.003 4.898z" style="" fill="#ff9900" data-original="#ff9900"></path><path d="M127.072 206.49v14.69c-8.97 4.68-19.18 7.32-30 7.32s-21.03-2.64-30-7.32v-14.69c0-6.32 3.91-11.73 9.44-13.93a66.1 66.1 0 0 0 7.56 4.62c8.97 4.68 19.18 7.32 30 7.32 4.33 0 8.56-.42 12.65-1.23.23 1.04.35 2.11.35 3.22z" style="" fill="#ff8700" data-original="#ff8700"></path><path d="M321.022 439a64.801 64.801 0 0 1-4.801 24.56c-12.851 17.134-19.72 23.311-33.31 30.395l-50.259-.141c-20.797-10.841-38.118-29.7-38.118-54.776 0-19.318 7.907-32.328 18.294-48.609C224.313 380.21 239.442 374 256.022 374c35.899 0 65 29.102 65 65z" style="" fill="#f5f8f9" data-original="#f5f8f9" class=""></path><circle cx="256.022" cy="423" r="18.5" style="" fill="#ffd8a1" data-original="#ffd8a1"></circle><path d="M316.222 463.56c-5.83 14.29-16.611 26.04-30.201 33.12l-30 1.48-30-1.48c-20.8-10.84-35-32.6-35-57.68 0-19.32 8.428-36.672 21.809-48.572A64.749 64.749 0 0 0 208.021 415c0 25.08 14.2 46.84 35 57.68 8.97 4.68 19.18 7.32 30 7.32s21.03-2.64 30-7.32a64.8 64.8 0 0 0 13.201-9.12z" style="" fill="#e8edf2" data-original="#e8edf2"></path><path d="m286.024 490.748-.002-8.758c0-8.28-6.72-15-15-15h-30c-8.28 0-15 6.72-15 15l-.001 3.86c17.675 7.448 40.32 8.783 60.003 4.898z" style="" fill="#ff9900" data-original="#ff9900"></path><path d="M286.021 481.99v14.69c-8.97 4.68-19.18 7.32-30 7.32s-21.03-2.64-30-7.32v-14.69c0-6.32 3.91-11.73 9.44-13.93a66.1 66.1 0 0 0 7.56 4.62c8.97 4.68 19.18 7.32 30 7.32 4.33 0 8.56-.42 12.65-1.23.23 1.04.35 2.11.35 3.22z" style="" fill="#ff8700" data-original="#ff8700"></path><path d="m340.13 279.69-11.91-6.88a.995.995 0 0 1-.47-1.07 73.487 73.487 0 0 0 1.71-15.74c0-5.41-.6-10.67-1.71-15.74-.09-.42.1-.86.47-1.07l11.91-6.88c.48-.28.65-.89.37-1.37l-20.55-35.59a1.01 1.01 0 0 0-1.37-.37l-11.91 6.89c-.38.21-.85.16-1.17-.13-7.75-7.08-17.01-12.52-27.25-15.77a.984.984 0 0 1-.7-.94v-13.74c0-.55-.45-1-1-1h-41.1c-.55 0-1 .45-1 1v13.74c0 .43-.28.81-.7.94-10.24 3.25-19.5 8.69-27.25 15.77-.32.29-.79.34-1.17.13l-11.91-6.89a1.01 1.01 0 0 0-1.37.37l-20.55 35.59c-.28.48-.11 1.09.37 1.37l11.91 6.88c.37.21.56.65.47 1.07a73.487 73.487 0 0 0-1.71 15.74c0 5.41.6 10.67 1.71 15.74.09.42-.1.86-.47 1.07l-11.91 6.88c-.48.28-.65.89-.37 1.37l20.55 35.59c.28.48.89.64 1.37.37l11.91-6.89c.38-.21.85-.16 1.17.13 7.75 7.08 17.01 12.52 27.25 15.77.42.13.7.51.7.94v13.74c0 .55.45 1 1 1h41.1c.55 0 1-.45 1-1v-13.74c0-.43.28-.81.7-.94 10.24-3.25 19.5-8.69 27.25-15.77.32-.29.79-.34 1.17-.13l11.91 6.89c.48.27 1.09.11 1.37-.37l20.55-35.59c.28-.48.11-1.09-.37-1.37zm-84.11 20.47c-24.39 0-44.16-19.77-44.16-44.16s19.77-44.16 44.16-44.16c24.39 0 44.16 19.77 44.16 44.16s-19.77 44.16-44.16 44.16z" style="" fill="#d9e7ec" data-original="#d9e7ec" class=""></path><path d="M256 200c-30.88 0-56 25.12-56 56s25.12 56 56 56 56-25.12 56-56-25.12-56-56-56zm0 96c-22.09 0-40-17.91-40-40s17.91-40 40-40 40 17.91 40 40-17.91 40-40 40z" style="" fill="#c5d3dd" data-original="#c5d3dd"></path><path d="M321.021 72.5a64.801 64.801 0 0 1-4.801 24.56c-12.851 17.134-19.72 23.311-33.31 30.395l-50.259-.141c-20.797-10.841-38.118-29.7-38.118-54.776 0-19.318 7.907-32.328 18.294-48.609C224.312 13.71 239.441 7.5 256.021 7.5c35.899 0 65 29.101 65 65z" style="" fill="#f5f8f9" data-original="#f5f8f9" class=""></path><circle cx="256.021" cy="56.5" r="18.5" style="" fill="#a6764a" data-original="#a6764a"></circle><path d="M316.221 97.06c-5.83 14.29-16.611 26.04-30.201 33.12l-30 1.48-30-1.48c-20.8-10.84-35-32.6-35-57.68 0-19.32 8.428-36.672 21.809-48.572A64.749 64.749 0 0 0 208.02 48.5c0 25.08 14.2 46.84 35 57.68 8.97 4.68 19.18 7.32 30 7.32s21.03-2.64 30-7.32a64.8 64.8 0 0 0 13.201-9.12z" style="" fill="#e8edf2" data-original="#e8edf2"></path><path d="m286.023 124.248-.002-8.758c0-8.28-6.72-15-15-15h-30c-8.28 0-15 6.72-15 15l-.001 3.86c17.675 7.448 40.32 8.783 60.003 4.898z" style="" fill="#3fe0c1" data-original="#3fe0c1"></path><path d="M286.02 115.49v14.69c-8.97 4.68-19.18 7.32-30 7.32s-21.03-2.64-30-7.32v-14.69c0-6.32 3.91-11.73 9.44-13.93a66.1 66.1 0 0 0 7.56 4.62c8.97 4.68 19.18 7.32 30 7.32 4.33 0 8.56-.42 12.65-1.23.23 1.04.35 2.11.35 3.22z" style="" fill="#20d1a2" data-original="#20d1a2"></path><circle cx="256.021" cy="54.5" r="17.5" style="stroke-width:15;stroke-linecap:round;stroke-linejoin:round;stroke-miterlimit:10;" fill="none" stroke="#000000" stroke-width="15" stroke-linecap="round" stroke-linejoin="round" stroke-miterlimit="10" data-original="#000000" class=""></circle><path d="M226.021 130.173v-14.684c0-8.284 6.716-15 15-15h30c8.284 0 15 6.716 15 15v14.684" style="stroke-width:15;stroke-linecap:round;stroke-linejoin:round;stroke-miterlimit:10;" fill="none" stroke="#000000" stroke-width="15" stroke-linecap="round" stroke-linejoin="round" stroke-miterlimit="10" data-original="#000000" class=""></path><path d="M321 70.825c.014.556.021 1.115.021 1.675 0 35.899-29.101 65-65 65s-65-29.101-65-65 29.102-65 65-65c23.041 0 43.283 11.989 54.826 30.069" style="stroke-width:15;stroke-linecap:round;stroke-linejoin:round;stroke-miterlimit:10;" fill="none" stroke="#000000" stroke-width="15" stroke-linecap="round" stroke-linejoin="round" stroke-miterlimit="10" data-original="#000000" class=""></path><circle cx="256.021" cy="54.5" r="17.5" style="stroke-width:15;stroke-linecap:round;stroke-linejoin:round;stroke-miterlimit:10;" fill="none" stroke="#000000" stroke-width="15" stroke-linecap="round" stroke-linejoin="round" stroke-miterlimit="10" data-original="#000000" class=""></circle><path d="M226.021 130.173v-14.684c0-8.284 6.716-15 15-15h30c8.284 0 15 6.716 15 15v14.684" style="stroke-width:15;stroke-linecap:round;stroke-linejoin:round;stroke-miterlimit:10;" fill="none" stroke="#000000" stroke-width="15" stroke-linecap="round" stroke-linejoin="round" stroke-miterlimit="10" data-original="#000000" class=""></path><circle cx="97.095" cy="164.232" r="65" style="stroke-width:15;stroke-linecap:round;stroke-linejoin:round;stroke-miterlimit:10;" fill="none" stroke="#000000" stroke-width="15" stroke-linecap="round" stroke-linejoin="round" stroke-miterlimit="10" data-original="#000000" class=""></circle><circle cx="97.095" cy="146.232" r="17.5" style="stroke-width:15;stroke-linecap:round;stroke-linejoin:round;stroke-miterlimit:10;" fill="none" stroke="#000000" stroke-width="15" stroke-linecap="round" stroke-linejoin="round" stroke-miterlimit="10" data-original="#000000" class=""></circle><path d="M67.095 221.905v-14.684c0-8.284 6.716-15 15-15h30c8.284 0 15 6.716 15 15v14.684M67.747 289.708c8.811-4.462 18.775-6.976 29.327-6.976 35.899 0 65 29.102 65 65s-29.102 65-65 65c-35.899 0-65-29.102-65-65 0-12.673 3.627-24.5 9.9-34.498" style="stroke-width:15;stroke-linecap:round;stroke-linejoin:round;stroke-miterlimit:10;" fill="none" stroke="#000000" stroke-width="15" stroke-linecap="round" stroke-linejoin="round" stroke-miterlimit="10" data-original="#000000" class=""></path><circle cx="97.074" cy="329.732" r="17.5" style="stroke-width:15;stroke-linecap:round;stroke-linejoin:round;stroke-miterlimit:10;" fill="none" stroke="#000000" stroke-width="15" stroke-linecap="round" stroke-linejoin="round" stroke-miterlimit="10" data-original="#000000" class=""></circle><path d="M67.074 405.405v-14.684c0-8.284 6.716-15 15-15h30c8.284 0 15 6.716 15 15v14.684M319.775 452.015c-5.834 29.911-32.179 52.485-63.796 52.485-35.899 0-65-29.102-65-65s29.101-65 65-65c28.242 0 52.277 18.011 61.245 43.174" style="stroke-width:15;stroke-linecap:round;stroke-linejoin:round;stroke-miterlimit:10;" fill="none" stroke="#000000" stroke-width="15" stroke-linecap="round" stroke-linejoin="round" stroke-miterlimit="10" data-original="#000000" class=""></path><circle cx="255.979" cy="421.5" r="17.5" style="stroke-width:15;stroke-linecap:round;stroke-linejoin:round;stroke-miterlimit:10;" fill="none" stroke="#000000" stroke-width="15" stroke-linecap="round" stroke-linejoin="round" stroke-miterlimit="10" data-original="#000000" class=""></circle><path d="M225.979 497.173v-14.684c0-8.284 6.716-15 15-15h30c8.284 0 15 6.716 15 15v14.684" style="stroke-width:15;stroke-linecap:round;stroke-linejoin:round;stroke-miterlimit:10;" fill="none" stroke="#000000" stroke-width="15" stroke-linecap="round" stroke-linejoin="round" stroke-miterlimit="10" data-original="#000000" class=""></path><circle cx="414.905" cy="347.768" r="65" style="stroke-width:15;stroke-linecap:round;stroke-linejoin:round;stroke-miterlimit:10;" fill="none" stroke="#000000" stroke-width="15" stroke-linecap="round" stroke-linejoin="round" stroke-miterlimit="10" data-original="#000000" class=""></circle><circle cx="414.905" cy="329.768" r="17.5" style="stroke-width:15;stroke-linecap:round;stroke-linejoin:round;stroke-miterlimit:10;" fill="none" stroke="#000000" stroke-width="15" stroke-linecap="round" stroke-linejoin="round" stroke-miterlimit="10" data-original="#000000" class=""></circle><path d="M384.905 405.442v-14.684c0-8.284 6.716-15 15-15h30c8.284 0 15 6.716 15 15v14.684" style="stroke-width:15;stroke-linecap:round;stroke-linejoin:round;stroke-miterlimit:10;" fill="none" stroke="#000000" stroke-width="15" stroke-linecap="round" stroke-linejoin="round" stroke-miterlimit="10" data-original="#000000" class=""></path><circle cx="414.926" cy="164.268" r="65" style="stroke-width:15;stroke-linecap:round;stroke-linejoin:round;stroke-miterlimit:10;" fill="none" stroke="#000000" stroke-width="15" stroke-linecap="round" stroke-linejoin="round" stroke-miterlimit="10" data-original="#000000" class=""></circle><circle cx="414.926" cy="146.268" r="17.5" style="stroke-width:15;stroke-linecap:round;stroke-linejoin:round;stroke-miterlimit:10;" fill="none" stroke="#000000" stroke-width="15" stroke-linecap="round" stroke-linejoin="round" stroke-miterlimit="10" data-original="#000000" class=""></circle><path d="M384.926 221.942v-14.684c0-8.284 6.716-15 15-15h30c8.284 0 15 6.716 15 15v14.684M329.464 256c0-5.406-.603-10.668-1.713-15.741a.991.991 0 0 1 .472-1.074l11.912-6.877a1 1 0 0 0 .366-1.366l-20.549-35.593a1 1 0 0 0-1.366-.366l-11.919 6.882a.992.992 0 0 1-1.167-.13c-7.749-7.073-17.011-12.513-27.253-15.764a.991.991 0 0 1-.696-.945v-13.734a1 1 0 0 0-1-1h-41.099a1 1 0 0 0-1 1v13.734a.991.991 0 0 1-.696.945c-10.242 3.251-19.504 8.691-27.253 15.764a.992.992 0 0 1-1.167.13l-11.919-6.882a1 1 0 0 0-1.366.366L171.5 230.942a1 1 0 0 0 .366 1.366l11.912 6.877c.376.217.564.65.472 1.074A73.546 73.546 0 0 0 182.537 256c0 5.406.603 10.668 1.713 15.741a.991.991 0 0 1-.472 1.074l-11.912 6.877a1 1 0 0 0-.366 1.366l20.549 35.593a1 1 0 0 0 1.366.366l11.919-6.882a.992.992 0 0 1 1.167.13c7.749 7.073 17.011 12.513 27.253 15.764a.991.991 0 0 1 .696.945v13.734a1 1 0 0 0 1 1h41.099a1 1 0 0 0 1-1v-13.734c0-.434.282-.814.696-.945 10.242-3.251 19.504-8.691 27.253-15.764a.992.992 0 0 1 1.167-.13l11.919 6.882a1 1 0 0 0 1.366-.366l20.549-35.593a1 1 0 0 0-.366-1.366l-11.912-6.877a.992.992 0 0 1-.472-1.074A73.419 73.419 0 0 0 329.464 256z" style="stroke-width:15;stroke-linecap:round;stroke-linejoin:round;stroke-miterlimit:10;" fill="none" stroke="#000000" stroke-width="15" stroke-linecap="round" stroke-linejoin="round" stroke-miterlimit="10" data-original="#000000" class=""></path><path d="M295.61 261.61c.257-1.833.39-3.706.39-5.61 0-22.091-17.909-40-40-40s-40 17.909-40 40 17.909 40 40 40a39.81 39.81 0 0 0 20.808-5.832" style="stroke-width:15;stroke-linecap:round;stroke-linejoin:round;stroke-miterlimit:10;" fill="none" stroke="#000000" stroke-width="15" stroke-linecap="round" stroke-linejoin="round" stroke-miterlimit="10" data-original="#000000" class=""></path></g></svg>